<?xml version='1.0' encoding='UTF-8'?>
<svg xmlns="http://www.w3.org/2000/svg" width="509.000px" height="60px"
     viewBox="0 0 509.000 60" font-family="ConsolasFallback,Consolas,Menlo,monospace">
<style>
@font-face {
  src: local('Consolas'), local('Consolas Bold');
  font-family: 'ConsolasFallback';
  font-display: swap;
  size-adjust: 109%;
}
text {white-space: pre;}
.px {shape-rendering: crispEdges;}
</style>
<g class="px">
<path d="M3 0h495v3h3v54h-3v3h-495v-3h-3v-54h3z" fill="#363c43"/>
<path d="M6 3h489v3h3v48h-3v3h-489v-3h-3v-48h3z" fill="#161b22"/>
<rect x="6" y="54" width="489" height="3" fill="#F76E0A"/>
<g fill="#F76E0A" transform="translate(195.94,28.5)"><path d="M-15 -13.5h30v3h-30zM-15 -10.5h3v3h-3zM12 -10.5h3v3h-3zM-15 -7.5h3v3h-3zM-9 -7.5h3v3h-3zM12 -7.5h3v3h-3zM-15 -4.5h3v3h-3zM-6 -4.5h3v3h-3zM12 -4.5h3v3h-3zM-15 -1.5h3v3h-3zM-9 -1.5h3v3h-3zM12 -1.5h3v3h-3zM-15 1.5h3v3h-3zM12 1.5h3v3h-3zM-15 4.5h30v3h-30zM-3 7.5h6v3h-6zM-9 10.5h18v3h-18z"/><path d="M-3 -1.5h9v3h-9z"><animate attributeName="opacity" values="1;0" keyTimes="0.0000;0.5000" dur="1.06s" calcMode="discrete" repeatCount="indefinite"/></path></g>
</g>
<text x="222.94" y="34.80" font-size="18px" fill="#c9d1d9">PORTFOLIO</text>
</svg>
